<svg height='300px' width='300px'  fill="#000000" xmlns="http://www.w3.org/2000/svg" xmlns:xlink="http://www.w3.org/1999/xlink" version="1.1" x="0px" y="0px" viewBox="-512 741 97.8 53.6" style="enable-background:new -512 741 97.8 53.6;" xml:space="preserve"><path d="M-416,741h-94.2c-1,0-1.8,0.8-1.8,1.8s0.8,1.8,1.8,1.8h94.2c1,0,1.8-0.8,1.8-1.8S-415,741-416,741z"></path><path d="M-416,766h-94.2c-1,0-1.8,0.8-1.8,1.8s0.8,1.8,1.8,1.8h94.2c1,0,1.8-0.8,1.8-1.8S-415,766-416,766z"></path><path d="M-416,791h-94.2c-1,0-1.8,0.8-1.8,1.8s0.8,1.8,1.8,1.8h94.2c1,0,1.8-0.8,1.8-1.8S-415,791-416,791z"></path></svg>