<?xml version="1.0" encoding="UTF-8" standalone="no"?><!DOCTYPE svg PUBLIC "-//W3C//DTD SVG 1.1//EN" "http://www.w3.org/Graphics/SVG/1.1/DTD/svg11.dtd"><svg width="100%" height="100%" viewBox="0 0 140 41" version="1.1" xmlns="http://www.w3.org/2000/svg" xmlns:xlink="http://www.w3.org/1999/xlink" xml:space="preserve" xmlns:serif="http://www.serif.com/" style="fill-rule:evenodd;clip-rule:evenodd;stroke-linejoin:round;stroke-miterlimit:2;"><g id="btn-add-to-slack"><path id="Mask-Copy-10" d="M6.5,0.5l127,0c3.3,0 6,2.7 6,6l0,28c0,3.3 -2.7,6 -6,6l-127,0c-3.3,0 -6,-2.7 -6,-6l0,-28c0,-3.3 2.7,-6 6,-6Z" style="fill:#551f5d;"/><g><g><path d="M15.1,23.4c0,1.3 -1,2.3 -2.3,2.3c-1.3,0 -2.3,-1 -2.3,-2.3c0,-1.3 1,-2.3 2.3,-2.3l2.3,0l0,2.3Z" style="fill:#e01e5a;fill-rule:nonzero;"/><path d="M16.3,23.4c0,-1.3 1,-2.3 2.3,-2.3c1.3,0 2.3,1 2.3,2.3l0,5.8c0,1.3 -1,2.3 -2.3,2.3c-1.3,0 -2.3,-1 -2.3,-2.3l0,-5.8Z" style="fill:#e01e5a;fill-rule:nonzero;"/></g><g><path d="M18.6,14.2c-1.3,0 -2.3,-1 -2.3,-2.3c0,-1.3 1,-2.3 2.3,-2.3c1.3,0 2.3,1 2.3,2.3l0,2.3l-2.3,0Z" style="fill:#36c5f0;fill-rule:nonzero;"/><path d="M18.6,15.3c1.3,0 2.3,1 2.3,2.3c0,1.3 -1,2.3 -2.3,2.3l-5.8,0c-1.3,0 -2.3,-1 -2.3,-2.3c0,-1.3 1,-2.3 2.3,-2.3l5.8,0Z" style="fill:#36c5f0;fill-rule:nonzero;"/></g><g><path d="M27.9,17.7c0,-1.3 1,-2.3 2.3,-2.3c1.3,0 2.3,1 2.3,2.3c0,1.3 -1,2.3 -2.3,2.3l-2.3,0l0,-2.3Z" style="fill:#2eb67d;fill-rule:nonzero;"/><path d="M26.7,17.7c0,1.3 -1,2.3 -2.3,2.3c-1.3,0 -2.3,-1 -2.3,-2.3l0,-5.8c0,-1.3 1,-2.3 2.3,-2.3c1.3,0 2.3,1 2.3,2.3l0,5.8Z" style="fill:#2eb67d;fill-rule:nonzero;"/></g><g><path d="M24.4,26.9c1.3,0 2.3,1 2.3,2.3c0,1.3 -1,2.3 -2.3,2.3c-1.3,0 -2.3,-1 -2.3,-2.3l0,-2.3l2.3,0Z" style="fill:#ecb22e;fill-rule:nonzero;"/><path d="M24.4,25.8c-1.3,0 -2.3,-1 -2.3,-2.3c0,-1.3 1,-2.3 2.3,-2.3l5.8,0c1.3,0 2.3,1 2.3,2.3c0,1.3 -1,2.3 -2.3,2.3l-5.8,0Z" style="fill:#ecb22e;fill-rule:nonzero;"/></g></g><g><path d="M47.5,23l-5,0l-1.2,3.2l-1.7,0l4.5,-11.3l1.8,0l4.5,11.3l-1.7,0l-1.2,-3.2Zm-4.5,-1.4l3.9,0l-2,-5.1l-1.9,5.1Z" style="fill:#fff;fill-rule:nonzero;"/><path d="M56.7,25c-0.4,0.7 -1.2,1.4 -2.4,1.4c-2.3,0 -3.6,-1.8 -3.6,-4.1c0,-2.2 1.5,-4 3.6,-4c1.4,0 2.1,0.7 2.4,1.3l0,-5l1.5,0l0,10.2c0,0.7 0.1,1.3 0.1,1.4l-1.5,0c0,-0.2 -0.1,-0.6 -0.1,-1l0,-0.2Zm-2.3,0.1c1.4,0 2.2,-1.2 2.2,-2.8c0,-1.6 -0.8,-2.7 -2.2,-2.7c-1.4,0 -2.3,1.1 -2.3,2.7c0.1,1.6 0.9,2.8 2.3,2.8Z" style="fill:#fff;fill-rule:nonzero;"/><path d="M65.5,25c-0.4,0.7 -1.2,1.4 -2.4,1.4c-2.3,0 -3.6,-1.8 -3.6,-4.1c0,-2.2 1.5,-4 3.6,-4c1.4,0 2.1,0.7 2.4,1.3l0,-5l1.5,0l0,10.2c0,0.7 0.1,1.3 0.1,1.4l-1.5,0c0,-0.2 -0.1,-0.6 -0.1,-1l0,-0.2Zm-2.3,0.1c1.4,0 2.2,-1.2 2.2,-2.8c0,-1.6 -0.8,-2.7 -2.2,-2.7c-1.4,0 -2.3,1.1 -2.3,2.7c0.1,1.6 0.9,2.8 2.3,2.8Z" style="fill:#fff;fill-rule:nonzero;"/><path d="M74.7,18.5l1.7,0l0,1.4l-1.7,0l0,4c0,0.7 0.3,1.1 1.1,1.1c0.2,0 0.5,0 0.6,-0.1l0,1.3c-0.1,0 -0.5,0.1 -1,0.1c-1.3,0 -2.1,-0.8 -2.1,-2.2l0,-4.2l-1.5,0l0,-1.4l0.4,0c0.8,0 1.2,-0.5 1.2,-1.2l0,-1.2l1.4,0l0,2.4l-0.1,0Z" style="fill:#fff;fill-rule:nonzero;"/><path d="M84.8,22.3c0,2.4 -1.6,4.1 -3.9,4.1c-2.3,0 -3.9,-1.7 -3.9,-4.1c0,-2.3 1.6,-4.1 3.9,-4.1c2.3,0.1 3.9,1.8 3.9,4.1Zm-1.5,0c0,-1.8 -1.1,-2.7 -2.4,-2.7c-1.3,0 -2.4,1 -2.4,2.7c0,1.8 1.1,2.8 2.4,2.8c1.3,0 2.4,-1 2.4,-2.8Z" style="fill:#fff;fill-rule:nonzero;"/><path d="M95.6,18.2c-0.1,-0.6 -0.6,-1.6 -2.1,-1.6c-1.1,0 -1.8,0.7 -1.8,1.4c0,0.6 0.4,1.1 1.2,1.3l1.6,0.3c2.1,0.4 3.2,1.7 3.2,3.3c0,1.7 -1.5,3.5 -4.1,3.5c-3,0 -4.3,-1.9 -4.5,-3.6l2,-0.5c0.1,1.1 0.9,2.1 2.5,2.1c1.2,0 1.8,-0.6 1.8,-1.4c0,-0.7 -0.5,-1.2 -1.4,-1.3l-1.6,-0.3c-1.8,-0.4 -3,-1.5 -3,-3.2c0,-2 1.8,-3.6 4,-3.6c2.8,0 3.8,1.7 4.1,2.9l-1.9,0.7Z" style="fill:#fff;fill-rule:nonzero;"/><rect x="99" y="14.6" width="2.1" height="11.6" style="fill:#fff;fill-rule:nonzero;"/><path d="M104.7,21.7l1.9,-0.3c0.4,-0.1 0.6,-0.3 0.6,-0.6c0,-0.6 -0.4,-1 -1.3,-1c-0.9,0 -1.4,0.6 -1.5,1.3l-1.9,-0.4c0.1,-1.2 1.3,-2.6 3.4,-2.6c2.5,0 3.4,1.4 3.4,3l0,3.9c0,0.4 0,1 0.1,1.2l-2,0c0,-0.2 -0.1,-0.6 -0.1,-0.9c-0.4,0.6 -1.2,1.2 -2.3,1.2c-1.7,0 -2.7,-1.1 -2.7,-2.4c0,-1.5 1.1,-2.2 2.4,-2.4Zm2.5,1.3l0,-0.4l-1.8,0.3c-0.5,0.1 -1,0.4 -1,1c0,0.5 0.3,0.9 1,0.9c1,0 1.8,-0.4 1.8,-1.8Z" style="fill:#fff;fill-rule:nonzero;"/><path d="M112.5,22.3c0,1.4 0.9,2.2 2,2.2c1.1,0 1.6,-0.7 1.8,-1.3l1.9,0.6c-0.4,1.3 -1.6,2.7 -3.7,2.7c-2.3,0 -4.1,-1.8 -4.1,-4.2c0,-2.4 1.8,-4.2 4.1,-4.2c2.1,0 3.4,1.3 3.7,2.7l-1.9,0.6c-0.2,-0.7 -0.7,-1.3 -1.7,-1.3c-1.2,0 -2.1,0.7 -2.1,2.2Z" style="fill:#fff;fill-rule:nonzero;"/><path d="M123.7,21.6l3.2,4.6l-2.6,0l-2.1,-3l-0.9,0.9l0,2.1l-2.1,0l0,-11.6l2.1,0l0,6.6l2.7,-2.9l2.8,0l-3.1,3.3Z" style="fill:#fff;fill-rule:nonzero;"/></g></g></svg>